#!OML:ASF F:\VICON\USERDATA\INSTALL\rory3\rory3.ASF
:FULLY-SPECIFIED
:DEGREES
706
root 0.373526 15.6999 -2.86784 345.464 -48.16 -357.801
lowerback 16.9598 1.31358 -4.90206
upperback 10.9562 0.682157 1.74583
thorax 2.16002 -0.139296 4.50861
lowerneck -17.6494 4.18894 -6.47083
upperneck 31.0469 7.48487 1.24415
head 13.0494 2.55816 2.75408
rclavicle -3.44891e-014 -1.55052e-014
rhumerus -25.163 17.0293 -89.343
rradius 74.6898
rwrist 28.1208
rhand -26.4962 12.5773
rfingers 7.12502
rthumb 0.0664713 -17.4025
lclavicle -3.44891e-014 -1.55052e-014
lhumerus -21.2349 -16.6723 91.5033
lradius 64.7212
lwrist -5.10023
lhand -22.522 18.8002
lfingers 7.12502
lthumb 3.90469 48.7442
rfemur -46.2025 -13.7592 19.6134
rtibia 65.5742
rfoot 16.9327 -11.6101
rtoes 19.9131
lfemur -46.0559 30.2918 -19.1674
ltibia 101.267
lfoot -0.373332 -5.97885
ltoes -14.3048
707
root 0.350863 15.7086 -2.86051 345.587 -48.0866 -357.865
lowerback 16.8851 1.37515 -4.79036
upperback 10.8744 0.787311 1.69709
thorax 2.09683 -0.0720546 4.37719
lowerneck -17.6814 4.19944 -6.28912
upperneck 31.1984 7.44301 1.26769
head 13.1272 2.55652 2.73334
rclavicle -6.62947e-014 4.21423e-014
rhumerus -25.1484 16.8094 -89.3526
rradius 73.8012
rwrist 27.7911
rhand -25.9696 12.7492
rfingers 7.12502
rthumb 0.575125 -17.2297
lclavicle -6.62947e-014 4.21423e-014
lhumerus -21.2719 -16.9931 91.5475
lradius 64.4984
lwrist -5.0828
lhand -22.278 18.9388
lfingers 7.12502
lthumb 4.14036 48.8783
rfemur -45.3164 -13.87 19.7436
rtibia 63.9748
rfoot 16.404 -10.1102
rtoes 19.2614
lfemur -45.9844 30.2567 -19.0624
ltibia 101.23
lfoot -0.338547 -6.08389
ltoes -13.9597
708
root 0.323121 15.7064 -2.85451 345.921 -47.8622 -358.045
lowerback 16.7442 1.34186 -4.6845
upperback 10.7472 0.77317 1.70465
thorax 2.03229 -0.0649559 4.32719
lowerneck -17.6375 4.31218 -6.28423
upperneck 31.2251 7.59736 1.28705
head 13.1202 2.62724 2.76244
rclavicle -5.83433e-014 1.82882e-014
rhumerus -25.0999 16.6346 -89.358
rradius 72.8802
rwrist 27.7481
rhand -25.2712 13.1819
rfingers 7.12502
rthumb 1.24964 -16.7942
lclavicle -5.83433e-014 1.82882e-014
lhumerus -21.4257 -17.25 91.5993
lradius 64.3723
lwrist -5.05379
lhand -22.1226 18.8435
lfingers 7.12502
lthumb 4.2904 48.78
rfemur -44.6753 -14.1495 20.0111
rtibia 62.5347
rfoot 15.6676 -8.59127
rtoes 16.8351
lfemur -46.2197 30.0838 -18.994
ltibia 101.286
lfoot -0.289737 -6.21514
ltoes -13.8397
709
root 0.299065 15.7078 -2.84571 346.267 -47.6082 -358.316
lowerback 16.6208 1.27525 -4.40681
upperback 10.6943 0.733492 1.66584
thorax 2.04214 -0.0659069 4.13409
lowerneck -17.6657 4.40548 -6.1251
upperneck 31.1596 7.70542 1.22606
head 13.1035 2.68897 2.72804
rclavicle -8.24956e-015 -1.82882e-014
rhumerus -24.9117 16.3671 -89.4574
rradius 71.9473
rwrist 27.8464
rhand -24.9901 13.3745
rfingers 7.12502
rthumb 1.52118 -16.5999
lclavicle -8.24956e-015 -1.82882e-014
lhumerus -21.4421 -17.5246 91.544
lradius 64.2602
lwrist -4.98717
lhand -22.1549 18.5681
lfingers 7.12502
lthumb 4.2592 48.5052
rfemur -44.018 -14.5146 20.3241
rtibia 61.2747
rfoot 15.0488 -7.21051
rtoes 16.8886
lfemur -46.3679 29.8391 -18.8665
ltibia 101.344
lfoot -0.263883 -6.30859
ltoes -13.7583
710
root 0.274503 15.7078 -2.83654 346.421 -47.3823 -358.42
lowerback 16.5889 1.25287 -4.25226
upperback 10.6283 0.730701 1.58533
thorax 1.98698 -0.0515459 3.96101
lowerneck -17.7259 4.46809 -5.81151
upperneck 31.1687 7.73833 1.12036
head 13.138 2.72488 2.64364
rclavicle 8.78628e-014 -1.03368e-014
rhumerus -24.7768 16.1587 -89.6021
rradius 71.0421
rwrist 27.7619
rhand -24.8676 13.4814
rfingers 7.12502
rthumb 1.63944 -16.4921
lclavicle 8.78628e-014 -1.03368e-014
lhumerus -21.422 -17.7596 91.5201
lradius 64.0676
lwrist -4.80073
lhand -22.2098 18.508
lfingers 7.12502
lthumb 4.20617 48.4462
rfemur -43.3769 -14.9631 20.5886
rtibia 60.272
rfoot 14.5257 -5.63909
rtoes 18.7053
lfemur -46.3857 29.6576 -18.8051
ltibia 101.389
lfoot -0.313418 -6.41557
ltoes -13.7884
711
root 0.248394 15.7031 -2.82757 346.582 -47.0676 -358.49
lowerback 16.5737 1.2174 -4.19103
upperback 10.498 0.700547 1.55007
thorax 1.85648 -0.0528399 3.89296
lowerneck -17.7295 4.51603 -5.65125
upperneck 31.258 7.76805 1.09887
head 13.1829 2.74947 2.61675
rclavicle 4.31363e-014 -1.43125e-014
rhumerus -24.8185 16.098 -89.6549
rradius 70.2966
rwrist 27.564
rhand -24.7409 13.5312
rfingers 7.12502
rthumb 1.76183 -16.4413
lclavicle 4.31363e-014 -1.43125e-014
lhumerus -21.4321 -17.9796 91.5631
lradius 63.8129
lwrist -4.78307
lhand -22.1287 18.6392
lfingers 7.12502
lthumb 4.28449 48.5759
rfemur -42.8959 -15.5445 20.8477
rtibia 59.5638
rfoot 13.6192 -4.13053
rtoes 19.2172
lfemur -46.4834 29.4254 -18.8031
ltibia 101.446
lfoot -0.309639 -6.47932
ltoes -13.4193
712
root 0.224735 15.7098 -2.81856 346.755 -46.7376 -358.563
lowerback 16.4848 1.17033 -4.03716
upperback 10.4227 0.668974 1.49459
thorax 1.82375 -0.0539838 3.75145
lowerneck -17.8258 4.51525 -5.63419
upperneck 31.314 7.74194 1.19796
head 13.2224 2.75122 2.65396
rclavicle 5.42682e-014 -2.8625e-014
rhumerus -24.8429 15.9482 -89.6144
rradius 69.7096
rwrist 27.5809
rhand -24.4097 13.5351
rfingers 7.12502
rthumb 2.08168 -16.4345
lclavicle 5.42682e-014 -2.8625e-014
lhumerus -21.3453 -18.2284 91.4885
lradius 63.5962
lwrist -5.13319
lhand -21.4737 18.6267
lfingers 7.12502
lthumb 4.91693 48.5496
rfemur -42.5175 -16.1023 20.9844
rtibia 59.1477
rfoot 12.2778 -3.08753
rtoes 18.0291
lfemur -46.5335 29.1838 -18.8303
ltibia 101.433
lfoot -0.377013 -6.54122
ltoes -13.5862
713
root 0.200989 15.7228 -2.80918 346.923 -46.5625 -358.657
lowerback 16.3447 1.16253 -3.79574
upperback 10.4007 0.69972 1.42925
thorax 1.86964 -0.0232363 3.5411
lowerneck -17.947 4.50744 -5.68254
upperneck 31.2643 7.71396 1.33639
head 13.2174 2.75583 2.71428
rclavicle -2.52457e-014 2.52457e-014
rhumerus -24.8644 15.7291 -89.5834
rradius 69.2004
rwrist 27.6316
rhand -24.3349 13.5129
rfingers 7.12502
rthumb 2.1539 -16.456
lclavicle -2.52457e-014 2.52457e-014
lhumerus -21.2295 -18.5717 91.3825
lradius 63.4509
lwrist -5.3245
lhand -20.9246 18.7551
lfingers 7.12502
lthumb 5.44719 48.6651
rfemur -42.1866 -16.431 21.1014
rtibia 58.9735
rfoot 10.8026 -2.48066
rtoes 16.6574
lfemur -46.5017 29.101 -18.7581
ltibia 101.403
lfoot -0.512767 -6.66803
ltoes -14.1224
714
root 0.174198 15.7252 -2.80439 347.23 -46.5039 -358.83
lowerback 16.234 1.19744 -3.61668
upperback 10.2918 0.779449 1.4143
thorax 1.80222 0.0327279 3.41225
lowerneck -17.9696 4.5345 -5.68503
upperneck 31.1987 7.72815 1.42522
head 13.1878 2.77888 2.74983
rclavicle 1.82882e-014 -3.43897e-014
rhumerus -24.9627 15.6356 -89.6281
rradius 68.6802
rwrist 27.481
rhand -24.5395 13.536
rfingers 7.12502
rthumb 1.95631 -16.4348
lclavicle 1.82882e-014 -3.43897e-014
lhumerus -21.2762 -18.8078 91.4087
lradius 63.2744
lwrist -5.45797
lhand -21.2001 19.0327
lfingers 7.12502
lthumb 5.18115 48.9494
rfemur -42.0462 -16.5806 21.3948
rtibia 58.9625
rfoot 9.78104 -2.00478
rtoes 16.7061
lfemur -46.662 29.1457 -18.6061
ltibia 101.437
lfoot -0.585076 -6.8182
ltoes -14.3078
715
root 0.146898 15.7259 -2.8039 347.596 -46.4688 -358.972
lowerback 16.042 1.25256 -3.43915
upperback 10.1642 0.88957 1.37348
thorax 1.75566 0.105109 3.25308
lowerneck -17.9988 4.54699 -5.65648
upperneck 31.1739 7.7159 1.50426
head 13.1801 2.7903 2.77415
rclavicle 5.59579e-014 -2.72335e-014
rhumerus -24.9985 15.5322 -89.6309
rradius 68.1618
rwrist 27.3602
rhand -24.4416 13.6854
rfingers 7.12502
rthumb 2.05091 -16.2845
lclavicle 5.59579e-014 -2.72335e-014
lhumerus -21.29 -19.0238 91.4511
lradius 63.0587
lwrist -5.60113
lhand -21.7225 19
lfingers 7.12502
lthumb 4.67671 48.9283
rfemur -42.096 -16.6878 21.7202
rtibia 59.0519
rfoot 9.3867 -1.36992
rtoes 17.0944
lfemur -46.9382 29.2313 -18.4982
ltibia 101.477
lfoot -0.569124 -7.0169
ltoes -14.4268
716
root 0.120295 15.7327 -2.79838 347.817 -46.3493 -359.049
lowerback 15.8223 1.29413 -3.11993
upperback 10.132 0.996891 1.27332
thorax 1.8296 0.179064 2.95288
lowerneck -18.0843 4.49407 -5.70926
upperneck 31.1339 7.61666 1.65663
head 13.1741 2.76515 2.82867
rclavicle -3.61788e-014 5.96354e-015
rhumerus -24.9494 15.3853 -89.566
rradius 67.7404
rwrist 26.9466
rhand -24.3125 13.8777
rfingers 7.12502
rthumb 2.17553 -16.091
lclavicle -3.61788e-014 5.96354e-015
lhumerus -21.1444 -19.3962 91.4657
lradius 62.7802
lwrist -5.70292
lhand -21.8927 18.6498
lfingers 7.12502
lthumb 4.51239 48.5817
rfemur -42.0403 -16.8397 21.8642
rtibia 59.1571
rfoot 9.18574 -0.633583
rtoes 17.1273
lfemur -47.0104 29.2518 -18.4207
ltibia 101.481
lfoot -0.603098 -7.1733
ltoes -14.5044
717
root 0.097521 15.7341 -2.79114 347.912 -46.1071 -358.992
lowerback 15.854 1.34274 -3.04287
upperback 10.0119 1.076 1.22031
thorax 1.679 0.231783 2.84118
lowerneck -18.0867 4.4681 -5.77215
upperneck 31.0999 7.55615 1.79735
head 13.1516 2.75455 2.88312
rclavicle -2.82771e-014 2.54444e-014
rhumerus -25.076 15.4119 -89.5285
rradius 67.4153
rwrist 26.2463
rhand -24.561 13.8045
rfingers 7.12502
rthumb 1.9356 -16.1664
lclavicle -2.82771e-014 2.54444e-014
lhumerus -21.1917 -19.7782 91.5861
lradius 62.6444
lwrist -5.81423
lhand -21.8832 18.5898
lfingers 7.12502
lthumb 4.52158 48.5215
rfemur -42.0081 -17.0598 21.8319
rtibia 59.2506
rfoot 9.00002 -0.0822244
rtoes 17.8998
lfemur -47.1028 29.1313 -18.5123
ltibia 101.485
lfoot -0.62055 -7.25022
ltoes -14.7037
718
root 0.0760437 15.7332 -2.79161 348.194 -45.877 -359.066
lowerback 15.9868 1.37617 -3.08217
upperback 9.77705 1.12036 1.24113
thorax 1.3532 0.265442 2.87599
lowerneck -17.9849 4.50356 -5.74724
upperneck 31.044 7.57103 1.85921
head 13.1027 2.77763 2.89903
rclavicle 3.85642e-014 2.38542e-015
rhumerus -25.4045 15.6389 -89.5897
rradius 67.2245
rwrist 25.5201
rhand -24.4869 13.4095
rfingers 7.12502
rthumb 2.00708 -16.5608
lclavicle 3.85642e-014 2.38542e-015
lhumerus -21.405 -20.0494 91.7179
lradius 62.5848
lwrist -5.93895
lhand -22.0048 18.7947
lfingers 7.12502
lthumb 4.40409 48.7289
rfemur -42.1263 -17.1972 21.9618
rtibia 59.2907
rfoot 8.75591 0.235976
rtoes 19.4365
lfemur -47.4211 28.9735 -18.5482
ltibia 101.51
lfoot -0.584452 -7.33139
ltoes -14.9356
719
root 0.0521399 15.74 -2.79174 348.477 -45.6711 -359.144
lowerback 15.8739 1.35936 -2.93267
upperback 9.70868 1.12557 1.13486
thorax 1.34122 0.281344 2.67945
lowerneck -18.0934 4.55336 -5.60008
upperneck 30.9179 7.58769 1.91057
head 13.0745 2.81611 2.89683
rclavicle 1.27719e-014 2.98177e-015
rhumerus -25.4896 15.7369 -89.7828
rradius 67.041
rwrist 24.9967
rhand -23.8888 13.294
rfingers 7.12502
rthumb 2.58479 -16.6701
lclavicle 1.27719e-014 2.98177e-015
lhumerus -21.2489 -20.3581 91.5054
lradius 62.4135
lwrist -6.02522
lhand -22.0351 18.8889
lfingers 7.12502
lthumb 4.37484 48.8237
rfemur -42.1886 -17.2231 22.0616
rtibia 59.2642
rfoot 8.41808 0.418087
rtoes 20.1841
lfemur -47.6433 28.8476 -18.5541
ltibia 101.503
lfoot -0.643724 -7.40346
ltoes -15.2897
720
root 0.0280266 15.7442 -2.78665 348.641 -45.4786 -359.154
lowerback 15.7986 1.34069 -2.7478
upperback 9.71644 1.12793 1.00215
thorax 1.39271 0.294348 2.43593
lowerneck -18.3678 4.62628 -5.35541
upperneck 30.8311 7.66176 1.83806
head 13.1073 2.86994 2.84808
rclavicle -4.5969e-014 1.98785e-014
rhumerus -25.4582 15.8327 -89.9413
rradius 66.8778
rwrist 24.8474
rhand -24.1203 13.1772
rfingers 7.12502
rthumb 2.36118 -16.7894
lclavicle -4.5969e-014 1.98785e-014
lhumerus -20.9253 -20.5602 91.2214
lradius 62.1824
lwrist -6.09945
lhand -21.6768 18.8751
lfingers 7.12502
lthumb 4.72086 48.8025
rfemur -42.1796 -17.242 22.0654
rtibia 59.1932
rfoot 8.02293 0.59622
rtoes 19.6512
lfemur -47.7249 28.7877 -18.5711
ltibia 101.495
lfoot -0.72062 -7.47772
ltoes -15.5188
